<svg width="24" height="24" viewBox="0 0 24 24" fill="none" xmlns="http://www.w3.org/2000/svg">
<circle cx="12.0002" cy="2.87565" r="2.87565" fill="white"/>
<path d="M9.64571 6.74609C5.17093 7.26673 3.35073 9.71149 2.8657 11.2228C2.77741 11.498 2.92629 11.7811 3.18451 11.9108L3.82152 12.2307C4.15592 12.3987 4.56039 12.2536 4.74934 11.9306C5.82349 10.0944 7.33505 9.49137 8.38889 9.38745C8.78721 9.34817 9.04062 9.74079 8.92714 10.1246L8.00502 13.2436C7.97802 13.3349 7.93035 13.4185 7.87642 13.4969C7.57511 13.9354 7.07681 15.0799 6.95505 17.0019C6.84329 18.766 4.78966 21.0407 3.26205 22.4289C2.88946 22.7675 2.9809 23.3924 3.44533 23.5868L4.14326 23.8789C4.3264 23.9556 4.53707 23.9453 4.7112 23.8499C9.16512 21.4103 10.5027 18.6764 10.68 17.0389C10.7277 16.5987 11.0993 16.1935 11.5329 16.2836C14.9329 16.9896 16.0188 19.9336 16.1832 21.8715C16.2148 22.2438 16.5129 22.5521 16.8866 22.5521H18.3998C18.7661 22.5521 19.0651 22.2533 19.0454 21.8875C18.7871 17.0808 15.7499 14.6592 13.7745 13.8353C13.4471 13.6988 13.2421 13.3518 13.3246 13.0068L13.9568 10.3609C14.0663 9.90249 14.6095 9.70179 15.0393 9.89517C17.3525 10.936 19.6865 9.6767 21.0098 8.51673C21.324 8.24128 21.2516 7.75297 20.8929 7.53854L20.0204 7.01685C19.7553 6.85837 19.4165 6.90827 19.1881 7.11612C16.9215 9.17838 15.1803 8.1104 14.3973 7.06518C14.2552 6.87545 14.0401 6.74609 13.8031 6.74609H9.64571Z" fill="white"/>
</svg>
