<svg width="24" height="24" viewBox="0 0 24 24" fill="none" xmlns="http://www.w3.org/2000/svg">
<path d="M17.7998 2.14307C18.5488 2.14318 19.2113 2.6296 19.4355 3.34424L21.4795 9.85889C22.8758 9.88617 23.9997 11.0255 24 12.4282V16.7144C23.9998 18.1342 22.8485 19.2854 21.4287 19.2856H20.5713V20.9995C20.5713 21.4729 20.1872 21.8569 19.7139 21.8569H17.1426C16.6693 21.8569 16.2852 21.4729 16.2852 20.9995V19.2856H7.71387V20.9995C7.71387 21.4727 7.3306 21.8567 6.85742 21.8569H4.28516C3.81197 21.8567 3.42871 21.4727 3.42871 20.9995V19.2856H2.57129C1.15132 19.2856 0.000198904 18.1343 0 16.7144V12.4282C0.000306478 11.0599 1.06953 9.94418 2.41797 9.86475L4.19141 3.40381C4.39573 2.65947 5.07288 2.14323 5.84473 2.14307H17.7998ZM5.14258 13.2856C4.19609 13.2857 3.42904 14.0531 3.42871 14.9995C3.42871 15.9462 4.19588 16.7143 5.14258 16.7144C6.08934 16.7144 6.85742 15.9463 6.85742 14.9995C6.85709 14.053 6.08913 13.2856 5.14258 13.2856ZM18.8564 13.2856C17.9099 13.2857 17.1429 14.0531 17.1426 14.9995C17.1426 15.9462 17.9097 16.7143 18.8564 16.7144C19.8032 16.7144 20.5713 15.9463 20.5713 14.9995C20.571 14.053 19.803 13.2856 18.8564 13.2856ZM7.51562 3.85693C6.72453 3.8572 6.03582 4.39953 5.84961 5.16846L4.9707 8.79834C4.84025 9.33757 5.24895 9.85671 5.80371 9.85693H18.2119C18.7618 9.85678 19.1697 9.34631 19.0479 8.81006L18.2256 5.19189C18.0482 4.41138 17.3541 3.85695 16.5537 3.85693H7.51562Z" fill="white"/>
</svg>
