<svg width="50" height="60" viewBox="0 0 50 60" fill="none" xmlns="http://www.w3.org/2000/svg">
<rect width="50" height="50" rx="25" fill="#262626"/>
<path d="M32.1867 19.9583H31.125C30.0656 20.0181 29.1576 19.2092 29.095 18.15V18.0567C29.065 17.5458 28.8328 17.0679 28.4497 16.7286C28.0666 16.3892 27.5641 16.2164 27.0533 16.2483H19.75V15.875C19.75 15.3918 19.3582 15 18.875 15C18.3918 15 18 15.3918 18 15.875V35.7083C18 36.1916 18.3918 36.5833 18.875 36.5833C19.3582 36.5833 19.75 36.1916 19.75 35.7083V26.0483H21.115C22.1744 25.9886 23.0824 26.7974 23.145 27.8567V27.9267C23.2076 28.9859 24.1156 29.7947 25.175 29.735H32.175C33.2344 29.7947 34.1424 28.9859 34.205 27.9267V21.7433C34.1242 20.7011 33.2309 19.9111 32.1867 19.9583Z" fill="white"/>
<path d="M23.8368 56.64L20.0268 45.6334C19.7501 44.8339 20.3438 44 21.1899 44H28.8099C29.6559 44 30.2497 44.8339 29.973 45.6334L26.1629 56.64C25.7807 57.7443 24.2191 57.7443 23.8368 56.64Z" fill="#262626"/>
</svg>
