<svg width="20" height="20" viewBox="0 0 20 20" fill="none" xmlns="http://www.w3.org/2000/svg">
<rect x="0.5" y="0.5" width="19" height="19" rx="9.5" fill="#FF4848"/>
<rect x="0.5" y="0.5" width="19" height="19" rx="9.5" stroke="white"/>
<path d="M13.08 8.125H12.625C12.171 8.1506 11.7818 7.80396 11.755 7.35V7.31C11.7421 7.09105 11.6426 6.88623 11.4784 6.74081C11.3142 6.59539 11.0989 6.52133 10.88 6.535H7.75V6.375C7.75 6.16789 7.58211 6 7.375 6C7.16789 6 7 6.16789 7 6.375V14.875C7 15.0821 7.16789 15.25 7.375 15.25C7.58211 15.25 7.75 15.0821 7.75 14.875V10.735H8.335C8.78903 10.7094 9.17816 11.056 9.205 11.51V11.54C9.23184 11.994 9.62097 12.3406 10.075 12.315H13.075C13.529 12.3406 13.9182 11.994 13.945 11.54V8.89C13.9104 8.44334 13.5275 8.10477 13.08 8.125Z" fill="white"/>
</svg>
